<svg xmlns="http://www.w3.org/2000/svg" xmlns:xlink="http://www.w3.org/1999/xlink" width="500" zoomAndPan="magnify" viewBox="0 0 375 374.999991" height="500" preserveAspectRatio="xMidYMid meet" version="1.0"><defs><g/></defs><rect x="-37.5" width="450" fill="#ffffff" y="-37.499999" height="449.999989" fill-opacity="1"/><rect x="-37.5" width="450" fill="#ffffff" y="-37.499999" height="449.999989" fill-opacity="1"/><rect x="-37.5" width="450" fill="#161616" y="-37.499999" height="449.999989" fill-opacity="1"/><g fill="#ffffff" fill-opacity="1"><g transform="translate(72.966826, 332.296735)"><g><path d="M 131.84375 0 C 127.050781 0 122.175781 -0.222656 117.21875 -0.671875 C 112.269531 -1.117188 107.25 -1.34375 102.15625 -1.34375 C 99.445312 -1.34375 96.664062 -1.269531 93.8125 -1.125 C 90.96875 -0.976562 88.195312 -0.90625 85.5 -0.90625 C 81.601562 -1.195312 78.003906 -2.164062 74.703125 -3.8125 C 71.398438 -5.46875 67.945312 -6.75 64.34375 -7.65625 C 60.445312 -8.550781 57.070312 -10.273438 54.21875 -12.828125 C 51.375 -15.378906 48.601562 -17.851562 45.90625 -20.25 C 42.90625 -22.644531 40.128906 -25.269531 37.578125 -28.125 C 35.023438 -30.976562 32.847656 -33.90625 31.046875 -36.90625 C 27.148438 -43.800781 24.597656 -52.648438 23.390625 -63.453125 C 22.191406 -74.253906 21.59375 -83.101562 21.59375 -90 C 21.59375 -97.800781 21.742188 -104.023438 22.046875 -108.671875 C 22.347656 -113.328125 22.5 -118.65625 22.5 -124.65625 L 22.046875 -146.25 C 22.046875 -150.445312 22.269531 -154.644531 22.71875 -158.84375 C 23.175781 -163.050781 23.40625 -167.253906 23.40625 -171.453125 C 23.40625 -175.648438 23.253906 -179.847656 22.953125 -184.046875 C 22.648438 -188.242188 22.5 -192.445312 22.5 -196.65625 C 22.5 -200.550781 22.796875 -204.671875 23.390625 -209.015625 C 23.992188 -213.367188 24.296875 -217.347656 24.296875 -220.953125 C 24.296875 -222.453125 24.070312 -224.472656 23.625 -227.015625 C 23.175781 -229.566406 22.953125 -231.894531 22.953125 -234 C 22.953125 -238.5 24.148438 -240.75 26.546875 -240.75 C 27.742188 -240.75 28.941406 -240.070312 30.140625 -238.71875 C 31.347656 -237.375 32.550781 -236.703125 33.75 -236.703125 C 34.644531 -236.703125 35.09375 -237.148438 35.09375 -238.046875 C 35.09375 -238.953125 34.492188 -240.300781 33.296875 -242.09375 C 32.097656 -243.300781 31.125 -244.351562 30.375 -245.25 C 29.625 -246.144531 29.25 -247.195312 29.25 -248.40625 C 29.25 -249.90625 29.847656 -251.703125 31.046875 -253.796875 C 32.242188 -255.898438 33.296875 -257.703125 34.203125 -259.203125 C 38.398438 -265.796875 43.5 -271.796875 49.5 -277.203125 C 51 -278.703125 52.570312 -279.75 54.21875 -280.34375 C 55.875 -280.945312 57.453125 -281.550781 58.953125 -282.15625 C 61.347656 -283.050781 63.519531 -284.023438 65.46875 -285.078125 C 67.425781 -286.128906 69.453125 -287.101562 71.546875 -288 C 75.742188 -289.5 79.867188 -290.398438 83.921875 -290.703125 C 87.972656 -291.003906 92.25 -291.300781 96.75 -291.59375 C 99.75 -291.59375 102.898438 -291.519531 106.203125 -291.375 C 109.503906 -291.226562 112.65625 -291.15625 115.65625 -291.15625 C 121.65625 -291.15625 127.425781 -291.078125 132.96875 -290.921875 C 138.519531 -290.773438 144.144531 -290.101562 149.84375 -288.90625 C 152.25 -288.601562 154.648438 -288.148438 157.046875 -287.546875 C 159.453125 -286.953125 161.851562 -286.203125 164.25 -285.296875 C 165.75 -284.703125 167.398438 -284.101562 169.203125 -283.5 C 171.003906 -282.894531 172.503906 -282.296875 173.703125 -281.703125 C 175.503906 -280.796875 177.003906 -279.59375 178.203125 -278.09375 C 179.398438 -276.59375 180.75 -275.242188 182.25 -274.046875 C 183.75 -272.847656 185.171875 -271.648438 186.515625 -270.453125 C 187.867188 -269.253906 189.144531 -268.050781 190.34375 -266.84375 C 193.644531 -263.84375 195.96875 -260.46875 197.3125 -256.71875 C 198.664062 -252.96875 200.242188 -249.296875 202.046875 -245.703125 C 203.847656 -241.796875 205.195312 -237.289062 206.09375 -232.1875 C 207 -227.09375 207.453125 -222.597656 207.453125 -218.703125 C 207.453125 -216.898438 207.300781 -215.097656 207 -213.296875 C 206.695312 -211.492188 206.546875 -209.695312 206.546875 -207.90625 C 206.546875 -206.101562 206.617188 -204.300781 206.765625 -202.5 C 206.921875 -200.695312 207 -199.046875 207 -197.546875 L 207 -170.546875 C 207 -169.347656 207 -168.148438 207 -166.953125 C 207 -165.753906 207 -164.40625 207 -162.90625 C 207 -161.101562 207 -159.222656 207 -157.265625 C 207 -155.316406 206.695312 -153.445312 206.09375 -151.65625 C 205.800781 -151.050781 205.503906 -150.445312 205.203125 -149.84375 C 204.898438 -149.25 204.75 -148.648438 204.75 -148.046875 C 204.75 -147.148438 205.046875 -146.398438 205.640625 -145.796875 C 206.242188 -145.203125 206.546875 -144.453125 206.546875 -143.546875 C 206.546875 -142.347656 206.09375 -141.070312 205.1875 -139.71875 C 204.289062 -138.375 203.09375 -137.550781 201.59375 -137.25 C 200.394531 -137.25 199.34375 -137.773438 198.4375 -138.828125 C 197.539062 -139.878906 196.34375 -140.40625 194.84375 -140.40625 C 192.445312 -140.40625 191.25 -139.351562 191.25 -137.25 C 191.25 -135.75 192.445312 -134.695312 194.84375 -134.09375 C 198.75 -133.195312 201.222656 -131.320312 202.265625 -128.46875 C 203.316406 -125.625 204.296875 -122.550781 205.203125 -119.25 C 205.796875 -117.445312 206.242188 -115.796875 206.546875 -114.296875 C 206.847656 -112.796875 207 -111.445312 207 -110.25 C 207 -108.445312 206.921875 -106.570312 206.765625 -104.625 C 206.617188 -102.675781 206.546875 -100.800781 206.546875 -99 C 206.546875 -96 206.769531 -92.472656 207.21875 -88.421875 C 207.675781 -84.367188 207.90625 -80.546875 207.90625 -76.953125 C 207.90625 -76.046875 207.976562 -74.914062 208.125 -73.5625 C 208.269531 -72.21875 208.34375 -70.796875 208.34375 -69.296875 C 208.34375 -67.203125 208.191406 -65.101562 207.890625 -63 C 207.597656 -60.894531 206.851562 -59.242188 205.65625 -58.046875 C 204.75 -56.847656 203.921875 -56.023438 203.171875 -55.578125 C 202.421875 -55.128906 202.046875 -54.300781 202.046875 -53.09375 C 202.046875 -51.894531 202.34375 -50.992188 202.9375 -50.390625 C 203.539062 -49.796875 203.84375 -49.050781 203.84375 -48.15625 C 203.84375 -46.945312 203.164062 -46.117188 201.8125 -45.671875 C 200.46875 -45.222656 199.5 -44.398438 198.90625 -43.203125 C 198.300781 -42.296875 198.070312 -41.394531 198.21875 -40.5 C 198.375 -39.601562 198.148438 -38.703125 197.546875 -37.796875 C 197.242188 -36.597656 196.644531 -36 195.75 -36 C 195.445312 -36 195.070312 -36.222656 194.625 -36.671875 C 194.175781 -37.117188 193.351562 -37.34375 192.15625 -37.34375 C 190.351562 -37.34375 189.453125 -36.742188 189.453125 -35.546875 C 189.453125 -34.046875 189.898438 -32.847656 190.796875 -31.953125 C 191.703125 -30.753906 192.15625 -29.550781 192.15625 -28.34375 C 192.15625 -28.050781 191.253906 -26.703125 189.453125 -24.296875 C 187.046875 -22.203125 184.644531 -19.800781 182.25 -17.09375 C 179.851562 -14.394531 177.15625 -12.144531 174.15625 -10.34375 C 171.15625 -8.550781 167.628906 -6.976562 163.578125 -5.625 C 159.523438 -4.269531 155.695312 -3.296875 152.09375 -2.703125 C 150.59375 -2.398438 149.09375 -2.097656 147.59375 -1.796875 C 146.09375 -1.492188 144.59375 -1.195312 143.09375 -0.90625 C 141.300781 -0.601562 139.425781 -0.375 137.46875 -0.21875 C 135.519531 -0.0703125 133.644531 0 131.84375 0 Z M 30.15625 -189 C 30.15625 -187.800781 31.050781 -187.203125 32.84375 -187.203125 C 34.34375 -187.203125 35.09375 -187.800781 35.09375 -189 C 35.09375 -190.195312 34.34375 -190.796875 32.84375 -190.796875 C 31.050781 -190.796875 30.15625 -190.195312 30.15625 -189 Z M 33.75 -176.40625 C 33.75 -174.601562 34.347656 -173.703125 35.546875 -173.703125 C 37.347656 -173.703125 38.25 -174.75 38.25 -176.84375 C 38.25 -178.644531 37.648438 -179.546875 36.453125 -179.546875 C 34.648438 -179.546875 33.75 -178.5 33.75 -176.40625 Z M 39.15625 -158.40625 C 39.15625 -156.90625 39.90625 -156.15625 41.40625 -156.15625 C 42.90625 -156.15625 43.65625 -156.90625 43.65625 -158.40625 C 43.65625 -159.601562 43.203125 -160.203125 42.296875 -160.203125 C 40.203125 -160.203125 39.15625 -159.601562 39.15625 -158.40625 Z M 54.90625 -187.65625 C 54.90625 -186.75 55.203125 -185.84375 55.796875 -184.9375 C 56.398438 -184.039062 56.703125 -182.992188 56.703125 -181.796875 C 57.003906 -181.492188 57.078125 -180.894531 56.921875 -180 C 56.773438 -179.101562 56.703125 -178.351562 56.703125 -177.75 C 56.703125 -176.25 57.453125 -175.5 58.953125 -175.5 C 60.453125 -175.5 61.347656 -176.023438 61.640625 -177.078125 C 61.941406 -178.128906 62.09375 -179.101562 62.09375 -180 C 62.09375 -181.195312 62.019531 -182.320312 61.875 -183.375 C 61.726562 -184.425781 61.65625 -185.398438 61.65625 -186.296875 C 61.65625 -189.296875 60.601562 -190.796875 58.5 -190.796875 C 57.894531 -191.097656 57.144531 -190.875 56.25 -190.125 C 55.351562 -189.375 54.90625 -188.550781 54.90625 -187.65625 Z M 59.40625 -134.09375 C 59.40625 -132.894531 60.15625 -132.296875 61.65625 -132.296875 C 62.851562 -132.296875 63.453125 -132.894531 63.453125 -134.09375 C 63.453125 -135.59375 62.703125 -136.34375 61.203125 -136.34375 C 60.003906 -136.34375 59.40625 -135.59375 59.40625 -134.09375 Z M 68.40625 -128.703125 C 68.40625 -126.898438 69.300781 -126 71.09375 -126 C 73.800781 -126 75.15625 -127.050781 75.15625 -129.15625 C 75.15625 -130.65625 74.253906 -131.40625 72.453125 -131.40625 C 69.753906 -131.40625 68.40625 -130.503906 68.40625 -128.703125 Z M 80.09375 -142.203125 C 80.09375 -141.296875 80.394531 -140.09375 81 -138.59375 C 81.601562 -137.09375 81.90625 -135.144531 81.90625 -132.75 C 81.90625 -130.945312 81.753906 -129.144531 81.453125 -127.34375 C 81.148438 -125.550781 81 -123.753906 81 -121.953125 C 81 -119.847656 81.148438 -117.820312 81.453125 -115.875 C 81.753906 -113.925781 81.90625 -111.898438 81.90625 -109.796875 C 81.90625 -105.898438 82.050781 -101.925781 82.34375 -97.875 C 82.644531 -93.820312 82.796875 -90.144531 82.796875 -86.84375 C 82.796875 -83.84375 82.796875 -79.789062 82.796875 -74.6875 C 82.796875 -69.59375 83.847656 -66 85.953125 -63.90625 C 87.148438 -62.695312 88.648438 -62.019531 90.453125 -61.875 C 92.253906 -61.726562 93.753906 -61.503906 94.953125 -61.203125 C 97.347656 -60.898438 99.519531 -60.523438 101.46875 -60.078125 C 103.425781 -59.628906 105.453125 -59.253906 107.546875 -58.953125 C 109.046875 -58.953125 110.546875 -58.800781 112.046875 -58.5 C 113.546875 -58.195312 114.894531 -58.046875 116.09375 -58.046875 C 118.5 -58.046875 120.597656 -58.421875 122.390625 -59.171875 C 124.191406 -59.921875 126.144531 -60.445312 128.25 -60.75 C 131.851562 -61.050781 135.378906 -61.648438 138.828125 -62.546875 C 142.273438 -63.453125 144.898438 -65.550781 146.703125 -68.84375 C 147.597656 -70.34375 148.195312 -72.066406 148.5 -74.015625 C 148.800781 -75.972656 148.953125 -77.851562 148.953125 -79.65625 C 148.953125 -82.050781 148.875 -84.296875 148.71875 -86.390625 C 148.570312 -88.492188 148.5 -90.597656 148.5 -92.703125 C 148.5 -93.597656 148.421875 -94.570312 148.265625 -95.625 C 148.117188 -96.675781 148.046875 -97.800781 148.046875 -99 C 148.046875 -100.800781 148.347656 -102.898438 148.953125 -105.296875 C 149.253906 -106.796875 149.925781 -107.921875 150.96875 -108.671875 C 152.019531 -109.421875 152.546875 -110.394531 152.546875 -111.59375 C 152.546875 -113.09375 151.867188 -114.144531 150.515625 -114.75 C 149.171875 -115.351562 148.5 -116.851562 148.5 -119.25 C 148.5 -121.644531 148.722656 -124.414062 149.171875 -127.5625 C 149.617188 -130.71875 149.84375 -133.644531 149.84375 -136.34375 C 149.84375 -139.644531 149.46875 -142.945312 148.71875 -146.25 C 147.96875 -149.550781 147.59375 -152.703125 147.59375 -155.703125 C 147.59375 -159.296875 147.894531 -163.71875 148.5 -168.96875 C 149.101562 -174.21875 149.40625 -179.242188 149.40625 -184.046875 C 149.40625 -187.347656 149.253906 -191.171875 148.953125 -195.515625 C 148.648438 -199.867188 148.347656 -203.695312 148.046875 -207 C 147.742188 -210.300781 147.59375 -213.898438 147.59375 -217.796875 C 147.59375 -221.703125 146.394531 -225.003906 144 -227.703125 C 141.894531 -230.097656 139.191406 -231.59375 135.890625 -232.1875 C 132.597656 -232.789062 129.300781 -233.09375 126 -233.09375 C 123 -233.09375 120.445312 -233.242188 118.34375 -233.546875 C 116.25 -233.847656 113.550781 -234 110.25 -234 C 109.050781 -234 107.25 -233.847656 104.84375 -233.546875 C 102.445312 -233.242188 100.5 -233.09375 99 -233.09375 C 95.101562 -232.800781 92.03125 -231.828125 89.78125 -230.171875 C 87.53125 -228.523438 85.65625 -226.050781 84.15625 -222.75 C 82.65625 -220.050781 81.90625 -217.050781 81.90625 -213.75 C 81.601562 -211.644531 81.222656 -209.84375 80.765625 -208.34375 C 80.316406 -206.84375 80.09375 -205.046875 80.09375 -202.953125 C 80.09375 -200.847656 80.316406 -198.742188 80.765625 -196.640625 C 81.222656 -194.546875 81.453125 -192.445312 81.453125 -190.34375 C 81.453125 -188.550781 81.375 -186.828125 81.21875 -185.171875 C 81.070312 -183.523438 81 -181.800781 81 -180 C 81 -174.894531 81.070312 -169.71875 81.21875 -164.46875 C 81.375 -159.21875 81.453125 -155.09375 81.453125 -152.09375 C 81.453125 -150.59375 81.222656 -149.019531 80.765625 -147.375 C 80.316406 -145.726562 80.09375 -144.003906 80.09375 -142.203125 Z M 85.046875 -258.296875 C 85.046875 -257.703125 85.796875 -256.65625 87.296875 -255.15625 C 88.796875 -253.65625 90.144531 -252.90625 91.34375 -252.90625 C 92.25 -252.90625 92.703125 -253.203125 92.703125 -253.796875 C 92.703125 -254.398438 92.023438 -255.453125 90.671875 -256.953125 C 89.328125 -258.453125 87.90625 -259.203125 86.40625 -259.203125 C 85.5 -259.203125 85.046875 -258.898438 85.046875 -258.296875 Z M 152.546875 -80.09375 C 152.546875 -79.195312 152.992188 -78.445312 153.890625 -77.84375 C 154.796875 -77.25 155.550781 -76.953125 156.15625 -76.953125 C 157.945312 -76.953125 158.84375 -77.851562 158.84375 -79.65625 C 158.84375 -82.050781 157.644531 -83.25 155.25 -83.25 C 153.445312 -83.25 152.546875 -82.195312 152.546875 -80.09375 Z M 154.796875 -141.75 C 154.796875 -140.550781 155.25 -139.953125 156.15625 -139.953125 C 157.050781 -139.953125 157.796875 -140.472656 158.390625 -141.515625 C 158.992188 -142.566406 159.296875 -143.394531 159.296875 -144 C 159.296875 -145.195312 158.695312 -145.796875 157.5 -145.796875 C 156.601562 -145.796875 155.925781 -145.269531 155.46875 -144.21875 C 155.019531 -143.175781 154.796875 -142.351562 154.796875 -141.75 Z M 156.15625 -225 C 156.15625 -223.5 156.90625 -222.75 158.40625 -222.75 C 159.90625 -222.75 161.253906 -223.195312 162.453125 -224.09375 C 163.648438 -225 164.25 -226.203125 164.25 -227.703125 C 164.25 -228.597656 164.023438 -229.644531 163.578125 -230.84375 C 163.128906 -232.050781 162.15625 -232.65625 160.65625 -232.65625 C 159.75 -232.65625 158.769531 -231.90625 157.71875 -230.40625 C 156.675781 -228.90625 156.15625 -227.101562 156.15625 -225 Z M 157.5 -130.5 C 157.5 -130.195312 158.171875 -129.96875 159.515625 -129.8125 C 160.867188 -129.664062 161.847656 -129.445312 162.453125 -129.15625 C 164.253906 -129.15625 165.53125 -128.78125 166.28125 -128.03125 C 167.03125 -127.28125 168.003906 -126.15625 169.203125 -124.65625 C 169.796875 -123.75 171.367188 -122.394531 173.921875 -120.59375 C 176.472656 -118.800781 178.800781 -117.90625 180.90625 -117.90625 C 183.300781 -117.90625 184.5 -119.253906 184.5 -121.953125 C 184.5 -123.753906 183.75 -125.03125 182.25 -125.78125 C 180.75 -126.53125 179.550781 -127.050781 178.65625 -127.34375 C 176.550781 -127.945312 174.898438 -129.300781 173.703125 -131.40625 C 172.796875 -133.195312 171.296875 -134.09375 169.203125 -134.09375 C 167.703125 -134.09375 166.648438 -133.71875 166.046875 -132.96875 C 165.453125 -132.21875 164.40625 -131.84375 162.90625 -131.84375 L 159.75 -132.296875 C 158.25 -132.296875 157.5 -131.695312 157.5 -130.5 Z M 158.40625 -67.953125 C 158.40625 -65.847656 159.15625 -63.519531 160.65625 -60.96875 C 162.15625 -58.425781 164.40625 -57.15625 167.40625 -57.15625 C 168.601562 -57.15625 169.203125 -57.601562 169.203125 -58.5 C 169.203125 -59.101562 168.828125 -59.925781 168.078125 -60.96875 C 167.328125 -62.019531 166.648438 -62.695312 166.046875 -63 C 165.742188 -63.601562 164.992188 -65.101562 163.796875 -67.5 C 162.597656 -69.894531 161.550781 -71.09375 160.65625 -71.09375 C 159.15625 -71.09375 158.40625 -70.046875 158.40625 -67.953125 Z M 165.15625 -76.5 C 165.15625 -73.800781 165.90625 -72.453125 167.40625 -72.453125 C 168.601562 -72.453125 169.203125 -73.5 169.203125 -75.59375 C 169.203125 -77.695312 168.601562 -78.75 167.40625 -78.75 C 165.90625 -78.75 165.15625 -78 165.15625 -76.5 Z M 166.953125 -153.90625 C 166.953125 -151.195312 168.148438 -150.144531 170.546875 -150.75 C 172.648438 -150.75 173.703125 -151.800781 173.703125 -153.90625 C 173.703125 -156.300781 172.5 -157.5 170.09375 -157.5 C 168 -157.5 166.953125 -156.300781 166.953125 -153.90625 Z M 175.046875 -29.703125 C 175.046875 -28.503906 175.796875 -27.90625 177.296875 -27.90625 C 178.492188 -27.90625 179.09375 -28.503906 179.09375 -29.703125 C 179.09375 -31.203125 178.492188 -31.953125 177.296875 -31.953125 C 175.796875 -31.953125 175.046875 -31.203125 175.046875 -29.703125 Z M 175.046875 -112.953125 C 175.046875 -111.453125 176.097656 -110.703125 178.203125 -110.703125 C 179.398438 -110.703125 180 -111 180 -111.59375 C 180 -113.394531 178.945312 -114.296875 176.84375 -114.296875 C 175.644531 -114.296875 175.046875 -113.847656 175.046875 -112.953125 Z M 175.5 -60.296875 C 175.5 -59.398438 176.023438 -58.273438 177.078125 -56.921875 C 178.128906 -55.578125 178.953125 -54.90625 179.546875 -54.90625 C 180.453125 -54.90625 180.90625 -55.503906 180.90625 -56.703125 C 180.90625 -57.898438 180.53125 -59.097656 179.78125 -60.296875 C 179.03125 -61.492188 178.050781 -62.09375 176.84375 -62.09375 C 175.945312 -62.09375 175.5 -61.492188 175.5 -60.296875 Z M 186.296875 -169.65625 C 186.296875 -166.351562 187.796875 -164.703125 190.796875 -164.703125 C 192.296875 -164.703125 193.570312 -165.300781 194.625 -166.5 C 195.675781 -167.695312 196.203125 -168.894531 196.203125 -170.09375 C 196.203125 -171.894531 194.703125 -172.796875 191.703125 -172.796875 C 188.097656 -172.796875 186.296875 -171.75 186.296875 -169.65625 Z M 189 -119.25 C 189 -116.851562 190.050781 -115.65625 192.15625 -115.65625 C 193.945312 -115.65625 194.84375 -116.550781 194.84375 -118.34375 C 194.84375 -120.75 193.796875 -121.953125 191.703125 -121.953125 C 189.898438 -121.953125 189 -121.050781 189 -119.25 Z M 189.453125 -97.65625 C 189.453125 -96.15625 190.351562 -95.40625 192.15625 -95.40625 C 193.945312 -95.40625 195.519531 -95.925781 196.875 -96.96875 C 198.226562 -98.019531 198.90625 -98.847656 198.90625 -99.453125 C 198.90625 -100.648438 197.851562 -101.25 195.75 -101.25 C 194.550781 -101.25 193.203125 -101.023438 191.703125 -100.578125 C 190.203125 -100.128906 189.453125 -99.15625 189.453125 -97.65625 Z M 198 -178.65625 C 198 -177.445312 198.75 -176.84375 200.25 -176.84375 C 201.445312 -176.84375 202.046875 -177.296875 202.046875 -178.203125 C 202.046875 -179.398438 201.296875 -180 199.796875 -180 C 198.296875 -180 197.695312 -179.550781 198 -178.65625 Z M 198 -178.65625 "/></g></g></g></svg>