<svg xmlns="http://www.w3.org/2000/svg" xmlns:xlink="http://www.w3.org/1999/xlink" width="500" zoomAndPan="magnify" viewBox="0 0 375 374.999991" height="500" preserveAspectRatio="xMidYMid meet" version="1.0"><defs><g/></defs><rect x="-37.5" width="450" fill="#ffffff" y="-37.499999" height="449.999989" fill-opacity="1"/><rect x="-37.5" width="450" fill="#ffffff" y="-37.499999" height="449.999989" fill-opacity="1"/><rect x="-37.5" width="450" fill="#161616" y="-37.499999" height="449.999989" fill-opacity="1"/><g fill="#ffffff" fill-opacity="1"><g transform="translate(96.703123, 265.455019)"><g><path d="M 55.34375 0.90625 C 49.945312 0.90625 44.695312 -0.21875 39.59375 -2.46875 C 34.5 -4.71875 30.300781 -8.09375 27 -12.59375 C 24.300781 -16.195312 22.050781 -20.550781 20.25 -25.65625 C 19.945312 -26.25 19.644531 -26.84375 19.34375 -27.4375 C 19.050781 -28.039062 18.90625 -28.644531 18.90625 -29.25 C 18.90625 -29.851562 19.128906 -30.453125 19.578125 -31.046875 C 20.023438 -31.648438 20.25 -32.398438 20.25 -33.296875 C 20.25 -34.796875 19.945312 -36.445312 19.34375 -38.25 C 18.75 -40.050781 18.453125 -41.851562 18.453125 -43.65625 C 18.453125 -44.550781 18.523438 -45.375 18.671875 -46.125 C 18.828125 -46.875 18.90625 -47.695312 18.90625 -48.59375 C 18.90625 -49.5 18.753906 -50.398438 18.453125 -51.296875 C 18.148438 -52.203125 18 -53.101562 18 -54 C 18 -54.894531 18.445312 -56.394531 19.34375 -58.5 C 19.644531 -59.394531 20.019531 -60.441406 20.46875 -61.640625 C 20.925781 -62.847656 21.453125 -63.898438 22.046875 -64.796875 C 22.347656 -65.398438 22.796875 -65.925781 23.390625 -66.375 C 23.992188 -66.820312 24.597656 -67.347656 25.203125 -67.953125 C 26.097656 -69.148438 26.769531 -70.570312 27.21875 -72.21875 C 27.675781 -73.875 28.203125 -75.300781 28.796875 -76.5 C 29.097656 -77.695312 29.398438 -78.820312 29.703125 -79.875 C 30.003906 -80.925781 30.300781 -81.898438 30.59375 -82.796875 C 31.195312 -83.992188 31.945312 -84.894531 32.84375 -85.5 C 33.75 -86.101562 34.5 -86.851562 35.09375 -87.75 C 36 -89.550781 36.375 -91.203125 36.21875 -92.703125 C 36.070312 -94.203125 36.898438 -95.703125 38.703125 -97.203125 C 39.597656 -97.796875 40.492188 -98.316406 41.390625 -98.765625 C 42.296875 -99.222656 43.050781 -99.75 43.65625 -100.34375 C 44.550781 -101.550781 45.222656 -102.753906 45.671875 -103.953125 C 46.117188 -105.148438 46.796875 -106.195312 47.703125 -107.09375 C 48.597656 -108.894531 49.492188 -109.945312 50.390625 -110.25 C 51.296875 -110.550781 52.347656 -111.453125 53.546875 -112.953125 C 54.148438 -113.847656 54.828125 -114.59375 55.578125 -115.1875 C 56.328125 -115.789062 56.851562 -116.546875 57.15625 -117.453125 C 57.445312 -118.046875 57.59375 -118.492188 57.59375 -118.796875 C 57.59375 -119.097656 57.742188 -119.398438 58.046875 -119.703125 C 58.648438 -120.597656 59.328125 -121.117188 60.078125 -121.265625 C 60.828125 -121.421875 61.203125 -121.800781 61.203125 -122.40625 C 61.203125 -123 60.972656 -123.367188 60.515625 -123.515625 C 60.066406 -123.671875 59.84375 -124.050781 59.84375 -124.65625 C 59.84375 -125.550781 60.441406 -126.296875 61.640625 -126.890625 C 62.847656 -127.492188 63.75 -128.097656 64.34375 -128.703125 C 65.25 -129.296875 66 -129.96875 66.59375 -130.71875 C 67.195312 -131.46875 67.945312 -132.296875 68.84375 -133.203125 C 69.75 -133.796875 70.648438 -134.242188 71.546875 -134.546875 C 72.453125 -134.847656 73.351562 -135.300781 74.25 -135.90625 C 74.550781 -136.195312 74.847656 -136.492188 75.140625 -136.796875 C 75.441406 -137.097656 75.742188 -137.398438 76.046875 -137.703125 C 76.648438 -138.003906 77.328125 -138.226562 78.078125 -138.375 C 78.828125 -138.519531 79.5 -138.59375 80.09375 -138.59375 C 81 -138.894531 81.453125 -139.421875 81.453125 -140.171875 C 81.453125 -140.921875 81.75 -141.75 82.34375 -142.65625 C 82.945312 -144.75 84.75 -146.695312 87.75 -148.5 C 89.25 -149.394531 90.820312 -150.21875 92.46875 -150.96875 C 94.125 -151.71875 95.550781 -152.394531 96.75 -153 C 99.144531 -154.195312 101.46875 -155.171875 103.71875 -155.921875 C 105.96875 -156.671875 108.445312 -157.046875 111.15625 -157.046875 C 114.445312 -157.046875 117.742188 -156.96875 121.046875 -156.8125 C 124.347656 -156.664062 127.5 -155.992188 130.5 -154.796875 C 132.601562 -153.898438 134.476562 -152.550781 136.125 -150.75 C 137.769531 -148.945312 139.492188 -147.144531 141.296875 -145.34375 C 143.097656 -142.945312 144.671875 -140.546875 146.015625 -138.140625 C 147.367188 -135.742188 148.195312 -133.195312 148.5 -130.5 C 148.800781 -128.394531 148.953125 -126.296875 148.953125 -124.203125 C 148.953125 -121.203125 148.800781 -118.050781 148.5 -114.75 C 147.894531 -112.050781 147.066406 -109.425781 146.015625 -106.875 C 144.972656 -104.320312 144.300781 -101.695312 144 -99 C 143.394531 -96.601562 142.789062 -94.050781 142.1875 -91.34375 C 141.59375 -88.644531 141 -86.097656 140.40625 -83.703125 C 139.195312 -80.703125 137.84375 -78.148438 136.34375 -76.046875 C 134.84375 -73.953125 134.09375 -72.300781 134.09375 -71.09375 C 134.09375 -69.894531 134.992188 -69.296875 136.796875 -69.296875 C 138.296875 -69.296875 139.945312 -69.59375 141.75 -70.1875 C 143.550781 -70.789062 144.898438 -71.242188 145.796875 -71.546875 C 148.203125 -72.742188 150.453125 -74.164062 152.546875 -75.8125 C 154.648438 -77.46875 156.75 -79.195312 158.84375 -81 C 162.75 -84.601562 166.722656 -88.28125 170.765625 -92.03125 C 174.816406 -95.78125 178.492188 -99.753906 181.796875 -103.953125 C 182.097656 -104.546875 182.695312 -105.367188 183.59375 -106.421875 C 184.5 -107.472656 185.398438 -108.597656 186.296875 -109.796875 C 187.796875 -112.203125 189 -113.40625 189.90625 -113.40625 C 191.101562 -113.40625 191.925781 -112.726562 192.375 -111.375 C 192.820312 -110.019531 193.046875 -108.59375 193.046875 -107.09375 C 193.046875 -101.09375 192.144531 -95.695312 190.34375 -90.90625 C 189.144531 -86.695312 187.421875 -82.867188 185.171875 -79.421875 C 182.921875 -75.972656 180.296875 -72.597656 177.296875 -69.296875 C 172.796875 -64.492188 168.070312 -60.21875 163.125 -56.46875 C 158.175781 -52.71875 152.550781 -49.796875 146.25 -47.703125 C 139.945312 -45.597656 133.5 -44.546875 126.90625 -44.546875 C 125.695312 -44.546875 124.644531 -44.695312 123.75 -45 C 122.851562 -45.300781 121.800781 -45.453125 120.59375 -45.453125 C 119.695312 -45.453125 118.722656 -44.925781 117.671875 -43.875 C 116.617188 -42.820312 115.796875 -41.847656 115.203125 -40.953125 C 111.296875 -35.546875 107.46875 -30.289062 103.71875 -25.1875 C 99.96875 -20.09375 95.394531 -15.597656 90 -11.703125 C 84.894531 -8.097656 79.566406 -5.09375 74.015625 -2.6875 C 68.472656 -0.289062 62.25 0.90625 55.34375 0.90625 Z M 105.296875 -82.34375 C 106.796875 -82.34375 107.921875 -83.394531 108.671875 -85.5 C 109.421875 -87.601562 110.097656 -89.101562 110.703125 -90 C 114.898438 -98.394531 118.347656 -107.394531 121.046875 -117 C 121.347656 -117.894531 121.648438 -118.867188 121.953125 -119.921875 C 122.253906 -120.972656 122.40625 -121.945312 122.40625 -122.84375 C 122.40625 -125.25 121.050781 -126.453125 118.34375 -126.453125 C 116.550781 -126.453125 114.753906 -125.847656 112.953125 -124.640625 C 111.148438 -123.441406 109.648438 -122.394531 108.453125 -121.5 C 105.753906 -118.5 103.65625 -114.445312 102.15625 -109.34375 C 100.65625 -104.25 99.90625 -99.75 99.90625 -95.84375 C 99.90625 -93.144531 100.203125 -90.21875 100.796875 -87.0625 C 101.398438 -83.914062 102.898438 -82.34375 105.296875 -82.34375 Z M 55.34375 -27.453125 C 56.25 -27.453125 57.453125 -27.597656 58.953125 -27.890625 C 60.453125 -28.191406 61.800781 -28.796875 63 -29.703125 C 64.195312 -30.597656 65.171875 -31.492188 65.921875 -32.390625 C 66.671875 -33.296875 67.644531 -34.050781 68.84375 -34.65625 C 73.34375 -37.65625 77.84375 -41.703125 82.34375 -46.796875 C 83.550781 -48.597656 85.128906 -50.398438 87.078125 -52.203125 C 89.023438 -54.003906 90 -56.101562 90 -58.5 C 90 -59.695312 89.550781 -60.894531 88.65625 -62.09375 C 88.050781 -63.300781 87.148438 -64.351562 85.953125 -65.25 C 84.753906 -66.144531 83.550781 -67.195312 82.34375 -68.40625 C 81.445312 -69.90625 80.695312 -71.328125 80.09375 -72.671875 C 79.5 -74.023438 78.898438 -75.601562 78.296875 -77.40625 C 77.992188 -78.300781 77.617188 -79.347656 77.171875 -80.546875 C 76.722656 -81.742188 75.898438 -82.34375 74.703125 -82.34375 C 73.503906 -82.34375 72.15625 -81.519531 70.65625 -79.875 C 69.15625 -78.226562 68.101562 -76.953125 67.5 -76.046875 C 65.695312 -73.347656 63.894531 -70.570312 62.09375 -67.71875 C 60.300781 -64.875 58.503906 -61.953125 56.703125 -58.953125 C 55.203125 -56.546875 53.847656 -52.941406 52.640625 -48.140625 C 51.441406 -43.347656 50.84375 -39.300781 50.84375 -36 C 50.84375 -30.300781 52.34375 -27.453125 55.34375 -27.453125 Z M 55.34375 -27.453125 "/></g></g></g></svg>